<?xml version="1.0" encoding="UTF-8"?>
<svg xmlns="http://www.w3.org/2000/svg" xmlns:xlink="http://www.w3.org/1999/xlink" width="48px" height="48px" viewBox="0 0 48 48" version="1.1">
<g id="surface1">
<path style=" stroke:none;fill-rule:nonzero;fill:rgb(0, 0, 0);fill-opacity:1;" d="M 46.9375 13.957031 C 46.875 13.960938 40.757812 14.316406 37.9375 11.496094 L 36.929688 10.484375 L 41.695312 5.71875 L 40.28125 4.304688 L 35.519531 9.066406 L 28.683594 2.207031 L 18.222656 12.671875 L 25.054688 19.53125 L 0.0390625 44.546875 L 1.453125 45.960938 L 26.464844 20.949219 L 27.472656 21.957031 C 30.25 24.734375 29.960938 30.886719 29.957031 30.949219 L 29.898438 32.003906 L 30.953125 32.003906 C 40.988281 32.003906 47.996094 24.992188 47.996094 14.957031 L 47.996094 13.890625 L 46.933594 13.960938 Z M 31.964844 29.972656 C 31.925781 27.859375 31.527344 23.183594 28.886719 20.546875 L 21.046875 12.675781 L 28.683594 5.042969 L 36.519531 12.910156 C 39.1875 15.578125 43.855469 15.953125 45.972656 15.976562 C 45.535156 23.953125 39.945312 29.539062 31.964844 29.976562 Z M 31.964844 29.972656 "/>
</g>
</svg>
